<mxfile host="app.diagrams.net" modified="2021-09-06T23:02:07.034Z" agent="5.0 (Windows NT 10.0; Win64; x64) AppleWebKit/537.36 (KHTML, like Gecko) Chrome/93.0.4577.63 Safari/537.36 Edg/93.0.961.38" etag="teoaP2B830qCPQIRZhzh" version="15.0.6" type="github">
  <diagram id="3AYCVtzGoSpn9Vro6qWg" name="Page-1">
    <mxGraphModel dx="670" dy="-78" grid="1" gridSize="10" guides="1" tooltips="1" connect="1" arrows="1" fold="1" page="1" pageScale="1" pageWidth="300" pageHeight="150" math="1" shadow="0">
      <root>
        <mxCell id="0" />
        <mxCell id="1" parent="0" />
        <mxCell id="XHsace0uavuUdTPFix8g-14" value="" style="rounded=1;whiteSpace=wrap;html=1;strokeWidth=0;fillColor=#dae8fc;strokeColor=none;" vertex="1" parent="1">
          <mxGeometry x="80" y="770" width="510" height="350" as="geometry" />
        </mxCell>
        <mxCell id="C57uJY7JvYRW9FqgshIM-1" value="" style="endArrow=classic;html=1;entryX=0.35;entryY=1.051;entryDx=0;entryDy=0;entryPerimeter=0;" parent="1" edge="1" target="XHsace0uavuUdTPFix8g-3">
          <mxGeometry relative="1" as="geometry">
            <mxPoint x="170" y="1060" as="sourcePoint" />
            <mxPoint x="170" y="950" as="targetPoint" />
          </mxGeometry>
        </mxCell>
        <mxCell id="C57uJY7JvYRW9FqgshIM-2" value="RKI Corona Landkreise" style="edgeLabel;resizable=0;html=1;align=center;verticalAlign=middle;" parent="C57uJY7JvYRW9FqgshIM-1" connectable="0" vertex="1">
          <mxGeometry relative="1" as="geometry">
            <mxPoint y="73" as="offset" />
          </mxGeometry>
        </mxCell>
        <mxCell id="C57uJY7JvYRW9FqgshIM-3" value="&lt;b&gt;ESRI/RKI: COVID-19-Datenhub&lt;/b&gt;" style="rounded=0;whiteSpace=wrap;html=1;" parent="1" vertex="1">
          <mxGeometry x="110" y="1060" width="450" height="40" as="geometry" />
        </mxCell>
        <mxCell id="C57uJY7JvYRW9FqgshIM-5" value="" style="endArrow=classic;html=1;exitX=0.657;exitY=0.006;exitDx=0;exitDy=0;exitPerimeter=0;entryX=0.227;entryY=0.987;entryDx=0;entryDy=0;entryPerimeter=0;" parent="1" target="C57uJY7JvYRW9FqgshIM-16" edge="1" source="C57uJY7JvYRW9FqgshIM-3">
          <mxGeometry relative="1" as="geometry">
            <mxPoint x="412" y="1059" as="sourcePoint" />
            <mxPoint x="402" y="980" as="targetPoint" />
            <Array as="points" />
          </mxGeometry>
        </mxCell>
        <mxCell id="C57uJY7JvYRW9FqgshIM-6" value="RKI History" style="edgeLabel;resizable=0;html=1;align=center;verticalAlign=middle;" parent="C57uJY7JvYRW9FqgshIM-5" connectable="0" vertex="1">
          <mxGeometry relative="1" as="geometry">
            <mxPoint x="-1" as="offset" />
          </mxGeometry>
        </mxCell>
        <mxCell id="C57uJY7JvYRW9FqgshIM-7" value="" style="endArrow=classic;html=1;entryX=0.735;entryY=1.01;entryDx=0;entryDy=0;entryPerimeter=0;exitX=0.887;exitY=-0.01;exitDx=0;exitDy=0;exitPerimeter=0;" parent="1" target="C57uJY7JvYRW9FqgshIM-16" edge="1" source="C57uJY7JvYRW9FqgshIM-3">
          <mxGeometry relative="1" as="geometry">
            <mxPoint x="510" y="1060" as="sourcePoint" />
            <mxPoint x="510" y="1002" as="targetPoint" />
          </mxGeometry>
        </mxCell>
        <mxCell id="C57uJY7JvYRW9FqgshIM-8" value="RKI COVID19" style="edgeLabel;resizable=0;html=1;align=center;verticalAlign=middle;" parent="C57uJY7JvYRW9FqgshIM-7" connectable="0" vertex="1">
          <mxGeometry relative="1" as="geometry">
            <mxPoint as="offset" />
          </mxGeometry>
        </mxCell>
        <mxCell id="C57uJY7JvYRW9FqgshIM-13" value="" style="endArrow=none;html=1;exitX=0.413;exitY=-0.005;exitDx=0;exitDy=0;exitPerimeter=0;endFill=0;" parent="1" source="C57uJY7JvYRW9FqgshIM-3" edge="1">
          <mxGeometry relative="1" as="geometry">
            <mxPoint x="320" y="1000" as="sourcePoint" />
            <mxPoint x="300" y="980" as="targetPoint" />
          </mxGeometry>
        </mxCell>
        <mxCell id="C57uJY7JvYRW9FqgshIM-14" value="RKI AdmUnit" style="edgeLabel;resizable=0;html=1;align=center;verticalAlign=middle;" parent="C57uJY7JvYRW9FqgshIM-13" connectable="0" vertex="1">
          <mxGeometry relative="1" as="geometry">
            <mxPoint as="offset" />
          </mxGeometry>
        </mxCell>
        <mxCell id="C57uJY7JvYRW9FqgshIM-16" value="Zeitreihe der Neuinfektionen, neuen Genesenen &amp;amp; Todesfällen" style="rounded=0;whiteSpace=wrap;html=1;" parent="1" vertex="1">
          <mxGeometry x="360" y="940" width="200" height="40" as="geometry" />
        </mxCell>
        <mxCell id="C57uJY7JvYRW9FqgshIM-19" value="" style="endArrow=classic;html=1;entryX=0;entryY=0.5;entryDx=0;entryDy=0;" parent="1" target="C57uJY7JvYRW9FqgshIM-16" edge="1">
          <mxGeometry width="50" height="50" relative="1" as="geometry">
            <mxPoint x="300" y="980" as="sourcePoint" />
            <mxPoint x="460" y="940" as="targetPoint" />
            <Array as="points" />
          </mxGeometry>
        </mxCell>
        <mxCell id="XHsace0uavuUdTPFix8g-1" value="Zeitreihe der absoluten Kompartimentverteilung" style="rounded=0;whiteSpace=wrap;html=1;" vertex="1" parent="1">
          <mxGeometry x="360" y="860" width="200" height="40" as="geometry" />
        </mxCell>
        <mxCell id="XHsace0uavuUdTPFix8g-2" value="&lt;b&gt;Zeitreihe der relativen Kompartimentverteilung&lt;/b&gt;" style="rounded=0;whiteSpace=wrap;html=1;" vertex="1" parent="1">
          <mxGeometry x="360" y="792.12" width="200" height="40" as="geometry" />
        </mxCell>
        <mxCell id="XHsace0uavuUdTPFix8g-3" value="Population der Landkreise" style="rounded=0;whiteSpace=wrap;html=1;" vertex="1" parent="1">
          <mxGeometry x="110" y="792.12" width="170" height="40" as="geometry" />
        </mxCell>
        <mxCell id="XHsace0uavuUdTPFix8g-5" value="" style="endArrow=classic;html=1;exitX=0.5;exitY=0;exitDx=0;exitDy=0;entryX=0.5;entryY=1;entryDx=0;entryDy=0;" edge="1" parent="1" source="XHsace0uavuUdTPFix8g-1" target="XHsace0uavuUdTPFix8g-2">
          <mxGeometry width="50" height="50" relative="1" as="geometry">
            <mxPoint x="470" y="840" as="sourcePoint" />
            <mxPoint x="465" y="820" as="targetPoint" />
          </mxGeometry>
        </mxCell>
        <mxCell id="XHsace0uavuUdTPFix8g-6" value="" style="endArrow=classic;html=1;entryX=0.574;entryY=1.03;entryDx=0;entryDy=0;entryPerimeter=0;" edge="1" parent="1" target="XHsace0uavuUdTPFix8g-3">
          <mxGeometry width="50" height="50" relative="1" as="geometry">
            <mxPoint x="300" y="980" as="sourcePoint" />
            <mxPoint x="200" y="823" as="targetPoint" />
          </mxGeometry>
        </mxCell>
        <mxCell id="XHsace0uavuUdTPFix8g-8" value="" style="endArrow=classic;html=1;exitX=0.5;exitY=0;exitDx=0;exitDy=0;entryX=0.5;entryY=1;entryDx=0;entryDy=0;" edge="1" parent="1">
          <mxGeometry relative="1" as="geometry">
            <mxPoint x="459.83" y="939.9999999999999" as="sourcePoint" />
            <mxPoint x="459.83" y="900.0000000000001" as="targetPoint" />
            <Array as="points">
              <mxPoint x="459.83" y="910" />
            </Array>
          </mxGeometry>
        </mxCell>
        <mxCell id="XHsace0uavuUdTPFix8g-9" value="Berechnung" style="edgeLabel;resizable=0;html=1;align=center;verticalAlign=middle;" connectable="0" vertex="1" parent="XHsace0uavuUdTPFix8g-8">
          <mxGeometry relative="1" as="geometry">
            <mxPoint as="offset" />
          </mxGeometry>
        </mxCell>
        <mxCell id="XHsace0uavuUdTPFix8g-12" value="" style="endArrow=classic;html=1;exitX=1;exitY=0.5;exitDx=0;exitDy=0;entryX=0;entryY=0.5;entryDx=0;entryDy=0;" edge="1" parent="1" source="XHsace0uavuUdTPFix8g-3" target="XHsace0uavuUdTPFix8g-2">
          <mxGeometry width="50" height="50" relative="1" as="geometry">
            <mxPoint x="315" y="860" as="sourcePoint" />
            <mxPoint x="365" y="810" as="targetPoint" />
          </mxGeometry>
        </mxCell>
        <mxCell id="XHsace0uavuUdTPFix8g-15" value="" style="rounded=1;whiteSpace=wrap;html=1;strokeWidth=0;fillColor=#d5e8d4;strokeColor=none;" vertex="1" parent="1">
          <mxGeometry x="80" y="590" width="320" height="160" as="geometry" />
        </mxCell>
        <mxCell id="XHsace0uavuUdTPFix8g-16" value="" style="rounded=1;whiteSpace=wrap;html=1;strokeWidth=0;fillColor=#f8cecc;strokeColor=none;" vertex="1" parent="1">
          <mxGeometry x="620" y="595" width="460" height="310" as="geometry" />
        </mxCell>
        <mxCell id="XHsace0uavuUdTPFix8g-17" value="" style="rounded=1;whiteSpace=wrap;html=1;strokeWidth=0;fillColor=#f8cecc;strokeColor=none;" vertex="1" parent="1">
          <mxGeometry x="420" y="590" width="660" height="160" as="geometry" />
        </mxCell>
        <mxCell id="XHsace0uavuUdTPFix8g-19" value="" style="rounded=1;whiteSpace=wrap;html=1;strokeWidth=0;fillColor=#ffe6cc;strokeColor=none;" vertex="1" parent="1">
          <mxGeometry x="610" y="940" width="470" height="180" as="geometry" />
        </mxCell>
        <mxCell id="XHsace0uavuUdTPFix8g-20" value="&lt;b&gt;Bundesagentur für Arbeit: Pendleratlas 2020&lt;/b&gt;" style="rounded=0;whiteSpace=wrap;html=1;" vertex="1" parent="1">
          <mxGeometry x="100" y="610" width="280" height="40" as="geometry" />
        </mxCell>
        <mxCell id="XHsace0uavuUdTPFix8g-21" value="Pendlerbeziehungen zwischen Landkreisen" style="rounded=0;whiteSpace=wrap;html=1;" vertex="1" parent="1">
          <mxGeometry x="100" y="690" width="280" height="40" as="geometry" />
        </mxCell>
        <mxCell id="XHsace0uavuUdTPFix8g-23" value="" style="endArrow=classic;html=1;exitX=0.5;exitY=1;exitDx=0;exitDy=0;entryX=0.5;entryY=0;entryDx=0;entryDy=0;" edge="1" parent="1" source="XHsace0uavuUdTPFix8g-20" target="XHsace0uavuUdTPFix8g-21">
          <mxGeometry relative="1" as="geometry">
            <mxPoint x="160" y="634.5" as="sourcePoint" />
            <mxPoint x="260" y="634.5" as="targetPoint" />
          </mxGeometry>
        </mxCell>
        <mxCell id="XHsace0uavuUdTPFix8g-24" value="manuelles Auslesen" style="edgeLabel;resizable=0;html=1;align=center;verticalAlign=middle;" connectable="0" vertex="1" parent="XHsace0uavuUdTPFix8g-23">
          <mxGeometry relative="1" as="geometry" />
        </mxCell>
        <mxCell id="XHsace0uavuUdTPFix8g-26" value="" style="rounded=1;whiteSpace=wrap;html=1;strokeWidth=0;fillColor=#f8cecc;strokeColor=none;" vertex="1" parent="1">
          <mxGeometry x="610" y="760" width="470" height="160" as="geometry" />
        </mxCell>
        <mxCell id="XHsace0uavuUdTPFix8g-36" value="" style="shape=switch;whiteSpace=wrap;html=1;strokeWidth=0;rotation=-45;fillColor=#f8cecc;strokeColor=none;aspect=fixed;" vertex="1" parent="1">
          <mxGeometry x="560" y="700" width="100" height="100" as="geometry" />
        </mxCell>
        <mxCell id="XHsace0uavuUdTPFix8g-37" value="&lt;b&gt;Netzwerkmodell&lt;br&gt;&lt;/b&gt;" style="rounded=0;whiteSpace=wrap;html=1;" vertex="1" parent="1">
          <mxGeometry x="440" y="610" width="150" height="50" as="geometry" />
        </mxCell>
        <mxCell id="XHsace0uavuUdTPFix8g-38" value="&lt;b&gt;Anfangszustand&lt;br&gt;&lt;/b&gt;" style="rounded=0;whiteSpace=wrap;html=1;" vertex="1" parent="1">
          <mxGeometry x="440" y="680" width="150" height="50" as="geometry" />
        </mxCell>
        <mxCell id="XHsace0uavuUdTPFix8g-39" value="" style="edgeStyle=elbowEdgeStyle;elbow=horizontal;endArrow=classic;html=1;entryX=0;entryY=0.5;entryDx=0;entryDy=0;exitX=1;exitY=0.5;exitDx=0;exitDy=0;" edge="1" parent="1" source="XHsace0uavuUdTPFix8g-21" target="XHsace0uavuUdTPFix8g-37">
          <mxGeometry width="50" height="50" relative="1" as="geometry">
            <mxPoint x="390" y="700" as="sourcePoint" />
            <mxPoint x="440" y="650" as="targetPoint" />
            <Array as="points">
              <mxPoint x="410" y="670" />
            </Array>
          </mxGeometry>
        </mxCell>
        <mxCell id="XHsace0uavuUdTPFix8g-42" value="&lt;h1&gt;&lt;font style=&quot;font-size: 37px&quot;&gt;Epidemiemodellierung mit Kompartimentmodellen: Ablauf der Projektarbeit&lt;/font&gt;&lt;/h1&gt;" style="text;html=1;strokeColor=none;fillColor=none;spacing=5;spacingTop=-20;whiteSpace=wrap;overflow=hidden;rounded=0;" vertex="1" parent="1">
          <mxGeometry x="70" y="480" width="930" height="90" as="geometry" />
        </mxCell>
        <mxCell id="XHsace0uavuUdTPFix8g-43" value="" style="endArrow=classic;html=1;exitX=0.775;exitY=-0.006;exitDx=0;exitDy=0;exitPerimeter=0;entryX=0.5;entryY=1;entryDx=0;entryDy=0;" edge="1" parent="1" source="XHsace0uavuUdTPFix8g-2" target="XHsace0uavuUdTPFix8g-38">
          <mxGeometry relative="1" as="geometry">
            <mxPoint x="475" y="749" as="sourcePoint" />
            <mxPoint x="516" y="729" as="targetPoint" />
          </mxGeometry>
        </mxCell>
        <mxCell id="XHsace0uavuUdTPFix8g-44" value="Auswahl" style="edgeLabel;resizable=0;html=1;align=center;verticalAlign=middle;" connectable="0" vertex="1" parent="XHsace0uavuUdTPFix8g-43">
          <mxGeometry relative="1" as="geometry">
            <mxPoint x="-1" as="offset" />
          </mxGeometry>
        </mxCell>
        <mxCell id="XHsace0uavuUdTPFix8g-56" value="" style="rounded=0;whiteSpace=wrap;html=1;strokeWidth=1;" vertex="1" parent="1">
          <mxGeometry x="650" y="610" width="260" height="140" as="geometry" />
        </mxCell>
        <mxCell id="XHsace0uavuUdTPFix8g-57" value="&lt;b style=&quot;font-size: 18px;&quot;&gt;System&lt;/b&gt;" style="text;html=1;strokeColor=none;fillColor=none;align=center;verticalAlign=middle;whiteSpace=wrap;rounded=0;fontSize=18;" vertex="1" parent="1">
          <mxGeometry x="760" y="620" width="40" height="20" as="geometry" />
        </mxCell>
        <mxCell id="XHsace0uavuUdTPFix8g-62" value="&lt;ul&gt;&lt;li&gt;gekoppelte &lt;b&gt;Differentialgleichungen &lt;/b&gt;für die Kompartimente&lt;/li&gt;&lt;li&gt;Übergänge gemäß &lt;b&gt;klassischem SIRD-Modell&lt;/b&gt;&lt;/li&gt;&lt;li&gt;Einführung der &lt;b&gt;Pendlerdynamik&lt;/b&gt;&amp;nbsp;an jedem Tag in der Simulation&lt;/li&gt;&lt;/ul&gt;" style="text;strokeColor=none;fillColor=none;html=1;whiteSpace=wrap;verticalAlign=middle;overflow=hidden;" vertex="1" parent="1">
          <mxGeometry x="650" y="630" width="240" height="112.5" as="geometry" />
        </mxCell>
        <mxCell id="XHsace0uavuUdTPFix8g-63" value="" style="endArrow=classic;html=1;fontSize=18;exitX=1.002;exitY=0.581;exitDx=0;exitDy=0;exitPerimeter=0;" edge="1" parent="1" source="XHsace0uavuUdTPFix8g-37">
          <mxGeometry width="50" height="50" relative="1" as="geometry">
            <mxPoint x="760" y="720" as="sourcePoint" />
            <mxPoint x="650" y="639" as="targetPoint" />
          </mxGeometry>
        </mxCell>
        <mxCell id="XHsace0uavuUdTPFix8g-64" value="&lt;font size=&quot;1&quot;&gt;&lt;b&gt;Konstanter Ansatz:&lt;br&gt;&lt;br&gt;&lt;/b&gt;&lt;/font&gt;" style="rounded=0;whiteSpace=wrap;html=1;fontSize=18;strokeWidth=1;" vertex="1" parent="1">
          <mxGeometry x="950" y="630" width="110" height="40" as="geometry" />
        </mxCell>
      </root>
    </mxGraphModel>
  </diagram>
</mxfile>
